<?xml version="1.0" encoding="iso-8859-1"?>
<!-- Uploaded to: SVG Repo, www.svgrepo.com, Generator: SVG Repo Mixer Tools -->
<svg version="1.1" id="Layer_1" xmlns="http://www.w3.org/2000/svg" xmlns:xlink="http://www.w3.org/1999/xlink" 
	 viewBox="0 0 512 512" xml:space="preserve">
<path style="fill:#554542;" d="M412,244c4.4,0,8,3.6,8,8v248c0,4.4-3.6,8-8,8h-16c-4.4,0-8-3.6-8-8v-76v-32v-40V252c0-4.4,3.6-8,8-8
	H412z"/>
<path id="SVGCleanerId_0" style="fill:#140500;" d="M412,512h-16c-6.8,0-12-5.2-12-12V252c0-6.8,5.2-12,12-12h16c6.8,0,12,5.2,12,12
	v248C424,506.8,418.8,512,412,512z M396,248c-2.4,0-4,1.6-4,4v248c0,2.4,1.6,4,4,4h16c2.4,0,4-1.6,4-4V252c0-2.4-1.6-4-4-4H396z"/>
<rect x="124" y="392" style="fill:#895129;" width="264" height="32"/>
<path style="fill:#140500;" d="M388,428H124c-2.4,0-4-1.6-4-4v-32c0-2.4,1.6-4,4-4h264c2.4,0,4,1.6,4,4v32
	C392,426.4,390.4,428,388,428z M128,420h256v-24H128V420z"/>
<path style="fill:#895129;" d="M372,332c4.4,0,8,3.6,8,8v12c0,4.4-3.6,8-8,8H140c-4.4,0-8-3.6-8-8v-12c0-4.4,3.6-8,8-8H372z"/>
<path style="fill:#140500;" d="M372,364H140c-6.8,0-12-5.2-12-12v-12c0-6.8,5.2-12,12-12h232c6.8,0,12,5.2,12,12v12
	C384,358.8,378.8,364,372,364z M140,336c-2.4,0-4,1.6-4,4v12c0,2.4,1.6,4,4,4h232c2.4,0,4-1.6,4-4v-12c0-2.4-1.6-4-4-4H140z"/>
<path style="fill:#BD8150;" d="M364.8,4h-216C140,4,132,11.2,132,20v84c0,4,1.6,7.6,4,10.4c3.2,3.6,7.6,5.6,12.8,5.6h172h32h12
	c4.8,0,8.4-2,11.2-5.2c2.4-2.8,4-6.8,4-10.8V20C380,11.2,373.6,4,364.8,4z"/>
<path style="fill:#9F633C;" d="M136,114.4c3.2,3.6,7.6,5.6,12.8,5.6h172h32h12c4.8,0,8.4-2,11.2-5.2v1.2v216h-4H140h-4V116V114.4z"
	/>
<path style="fill:#140500;" d="M376,336H136c-2.4,0-4-1.6-4-4V114.4c0-1.6,1.2-3.2,2.4-3.6c1.6-0.4,3.2,0,4.4,1.2
	c2.4,2.8,6,4.4,9.6,4.4h216c3.2,0,6-1.2,8.4-3.6c1.2-1.2,2.8-1.6,4.4-1.2c1.6,0.4,2.4,2,2.4,3.6V332C380,334.4,378.4,336,376,336z
	 M140,328h232V122.4c-2.4,0.8-4.8,1.6-7.2,1.6h-216c-3.2,0-6-0.8-8.8-2V328z"/>
<path style="fill:#554542;" d="M116,244c4.4,0,8,3.6,8,8v100v40v32v76c0,4.4-3.6,8-8,8h-16c-4.4,0-8-3.6-8-8V252c0-4.4,3.6-8,8-8
	H116z"/>
<path id="SVGCleanerId_1" style="fill:#140500;" d="M116,512h-16c-6.8,0-12-5.2-12-12V252c0-6.8,5.2-12,12-12h16c6.8,0,12,5.2,12,12
	v248C128,506.8,122.8,512,116,512z M100,248c-2.4,0-4,1.6-4,4v248c0,2.4,1.6,4,4,4h16c2.4,0,4-1.6,4-4V252c0-2.4-1.6-4-4-4H100z"/>
<path d="M364.8,124h-216c-6,0-11.6-2.4-15.6-7.2c-3.2-3.6-5.2-8-5.2-12.8V20c0-10.8,9.6-20,20.8-20h216C375.6,0,384,8.8,384,20v84
	c0,5.2-1.6,10-5.2,13.6C375.2,121.6,370.4,124,364.8,124z M148.8,8C142,8,136,13.6,136,20v84c0,2.8,1.2,5.6,2.8,7.6
	c2.4,2.8,6,4.4,9.6,4.4h216c3.2,0,6-1.2,8.4-3.6l0,0c2-2,2.8-5.2,2.8-8.4V20c0-6.8-4.8-12-11.2-12H148.8z"/>
<path d="M376,336c-2.4,0-4-1.6-4-4V116c0-2.4,1.6-4,4-4s4,1.6,4,4v216C380,334.4,378.4,336,376,336z"/>
<path d="M136,336c-2.4,0-4-1.6-4-4V116c0-2.4,1.6-4,4-4s4,1.6,4,4v216C140,334.4,138.4,336,136,336z"/>
<path d="M372,364H140c-6.8,0-12-5.2-12-12v-12c0-6.8,5.2-12,12-12h232c6.8,0,12,5.2,12,12v12C384,358.8,378.8,364,372,364z M140,336
	c-2.4,0-4,1.6-4,4v12c0,2.4,1.6,4,4,4h232c2.4,0,4-1.6,4-4v-12c0-2.4-1.6-4-4-4H140z"/>
<path d="M388,396H124c-2.4,0-4-1.6-4-4s1.6-4,4-4h264c2.4,0,4,1.6,4,4S390.4,396,388,396z"/>
<path style="fill:#140500;" d="M388,428H124c-2.4,0-4-1.6-4-4s1.6-4,4-4h264c2.4,0,4,1.6,4,4S390.4,428,388,428z"/>
<path style="fill:#9F633C;" d="M124,424v76c0,4.4-3.6,8-8,8h-16c-4.4,0-8-3.6-8-8V252c0-4.4,3.6-8,8-8h16c4.4,0,8,3.6,8,8v100v40
	V424z"/>
<g>
	<path id="SVGCleanerId_1_1_" style="fill:#140500;" d="M116,512h-16c-6.8,0-12-5.2-12-12V252c0-6.8,5.2-12,12-12h16
		c6.8,0,12,5.2,12,12v248C128,506.8,122.8,512,116,512z M100,248c-2.4,0-4,1.6-4,4v248c0,2.4,1.6,4,4,4h16c2.4,0,4-1.6,4-4V252
		c0-2.4-1.6-4-4-4H100z"/>
</g>
<path style="fill:#9F633C;" d="M388,352V252c0-4.4,3.6-8,8-8h16c4.4,0,8,3.6,8,8v248c0,4.4-3.6,8-8,8h-16c-4.4,0-8-3.6-8-8v-76v-32
	V352z"/>
<g>
	<path id="SVGCleanerId_0_1_" style="fill:#140500;" d="M412,512h-16c-6.8,0-12-5.2-12-12V252c0-6.8,5.2-12,12-12h16
		c6.8,0,12,5.2,12,12v248C424,506.8,418.8,512,412,512z M396,248c-2.4,0-4,1.6-4,4v248c0,2.4,1.6,4,4,4h16c2.4,0,4-1.6,4-4V252
		c0-2.4-1.6-4-4-4H396z"/>
</g>
<path d="M360,28h-28c-2.4,0-4-1.6-4-4s1.6-4,4-4h28c2.4,0,4,1.6,4,4S362.4,28,360,28z"/>
<path d="M316,28h-16c-2.4,0-4-1.6-4-4s1.6-4,4-4h16c2.4,0,4,1.6,4,4S318.4,28,316,28z"/>
<path d="M360,48c-2.4,0-4-1.6-4-4V24c0-2.4,1.6-4,4-4s4,1.6,4,4v20C364,46.4,362.4,48,360,48z"/>
<path d="M156,244c-2.4,0-4-1.6-4-4v-64c0-2.4,1.6-4,4-4s4,1.6,4,4v64C160,242.4,158.4,244,156,244z"/>
<path d="M156,160c-2.4,0-4-1.6-4-4v-12c0-2.4,1.6-4,4-4s4,1.6,4,4v12C160,158.4,158.4,160,156,160z"/>
</svg>